<svg data-v-0dd9719b="" version="1.0" xmlns="http://www.w3.org/2000/svg" xmlns:xlink="http://www.w3.org/1999/xlink" width="100%" height="100%" viewBox="0 0 340.000000 250.000000" preserveAspectRatio="xMidYMid meet" color-interpolation-filters="sRGB" style="margin: auto;"> <rect data-v-0dd9719b="" x="0" y="0" width="100%" height="100%" fill="#fff" fill-opacity="1" class="background"></rect> <rect data-v-0dd9719b="" x="0" y="0" width="100%" height="100%" fill="url(#watermark)" fill-opacity="1" class="watermarklayer"></rect> <g data-v-0dd9719b="" fill="#333" class="icon-text-wrapper icon-svg-group iconsvg" transform="translate(48.62000274658203,91.58758926391602)"><g class="iconsvg-imagesvg" transform="translate(0,0)"><g><rect fill="#333" fill-opacity="0" stroke-width="2" x="0" y="0" width="60" height="66.82481873767918" class="image-rect"></rect> <svg x="0" y="0" width="60" height="66.82481873767918" filtersec="colorsb9381639883" class="image-svg-svg primary" style="overflow: visible;"><svg xmlns="http://www.w3.org/2000/svg" viewBox="0 -0.0028373277746140957 89.81000518798828 100.02556610107422"><title>资源 134</title><path d="M64.35 47.87c-.58 0-1.17 0-1.74.05.34.73.66 1.46 1 2.2a64.86 64.86 0 0 1 5.14 25.46 65.77 65.77 0 0 1-1.34 13.26L84.44 79a11.89 11.89 0 0 0 5.37-9.28v-10a33.48 33.48 0 0 0-25.46-11.85zM21.49 69a9.3 9.3 0 0 1 9.3-9.31 9.07 9.07 0 0 1 1.66.15 39.44 39.44 0 0 1 4.73-5.73 38.15 38.15 0 0 1 15.09-9.32 58 58 0 0 0-41.94-26.64L5.38 21A11.9 11.9 0 0 0 0 30.28v39.44A11.9 11.9 0 0 0 5.38 79l22 12.68a38.86 38.86 0 0 1-1.19-14.63 9.3 9.3 0 0 1-4.7-8.05z" fill="#275cde"></path><path d="M84.44 21L50.28 1.28a11.86 11.86 0 0 0-10.73 0L20.29 12.4a64 64 0 0 1 8.49 2.92 65.23 65.23 0 0 1 20.79 14 65.61 65.61 0 0 1 10.52 13.76 37.62 37.62 0 0 1 4.26-.24 38.33 38.33 0 0 1 25.46 9.64v-22.2A11.92 11.92 0 0 0 84.44 21z" fill="#0a2183"></path><path d="M37 62.08a9.31 9.31 0 0 1-5.95 16.2c-.08 1-.13 2-.13 3a33.2 33.2 0 0 0 3.26 14.39l5.33 3.07a11.84 11.84 0 0 0 10.72 0l7.87-4.54a57.76 57.76 0 0 0-3.27-44.94A33.46 33.46 0 0 0 37 62.08z" fill="#01cfff"></path></svg></svg> <!----></g></g> <g transform="translate(67,16.517410278320312)"><g data-gra="path-name" fill-rule="" class="tp-name iconsvg-namesvg"><g transform="scale(1)"><g><path d="M31.5-33.79L31.5 0 26.9 0 26.9-15.37 8.7-15.37 8.7 0 4.1 0 4.1-33.79 8.7-33.79 8.7-18.72 26.9-18.72 26.9-33.79 31.5-33.79ZM39.75-33.79L60.57-33.79 60.57-30.06 44.35-30.06 44.35-18.84 57.48-18.84 57.48-15.26 44.35-15.26 44.35-3.73 60.57-3.73 60.57 0 39.75 0 39.75-33.79ZM69.51-33.79L69.51-33.79Q70.12-33.79 70.42-33.64 70.71-33.48 71.09-33.01L71.09-33.01 90.66-7.55Q90.59-8.16 90.57-8.74 90.54-9.31 90.54-9.86L90.54-9.86 90.54-33.79 94.55-33.79 94.55 0 92.24 0Q91.7 0 91.33-0.19 90.97-0.38 90.61-0.83L90.61-0.83 71.07-26.27Q71.11-25.68 71.14-25.11 71.16-24.55 71.16-24.07L71.16-24.07 71.16 0 67.15 0 67.15-33.79 69.51-33.79ZM107.38-33.79L107.38-3.84 122-3.84 122 0 102.8 0 102.8-33.79 107.38-33.79ZM127.04-33.79L147.86-33.79 147.86-30.06 131.64-30.06 131.64-18.84 144.77-18.84 144.77-15.26 131.64-15.26 131.64-3.73 147.86-3.73 147.86 0 127.04 0 127.04-33.79ZM179.86-33.79L167.46-13.44 167.46 0 162.91 0 162.91-13.44 150.53-33.79 154.53-33.79Q155.15-33.79 155.5-33.48 155.86-33.18 156.11-32.73L156.11-32.73 163.85-19.59Q164.32-18.77 164.64-18.04 164.96-17.31 165.22-16.6L165.22-16.6Q165.48-17.33 165.78-18.06 166.09-18.79 166.56-19.59L166.56-19.59 174.27-32.73Q174.48-33.1 174.85-33.45 175.21-33.79 175.8-33.79L175.8-33.79 179.86-33.79Z" transform="translate(-4.099999904632568, 33.790000915527344)"></path></g> <!----> <!----> <!----> <!----> <!----> <!----> <!----></g></g> <!----></g></g><defs v-gra="od"></defs></svg>